<svg width="34" height="34" viewBox="0 0 34 34" fill="none" xmlns="http://www.w3.org/2000/svg">
<path d="M12.9616 11.0943C12.5387 9.68467 12.3273 8.97984 12.3765 8.40893C12.4741 7.27664 13.2032 6.29673 14.2597 5.87786C14.7924 5.66666 15.5282 5.66666 17 5.66666C18.4717 5.66666 19.2076 5.66666 19.7403 5.87786C20.7967 6.29673 21.5258 7.27664 21.6235 8.40893C21.6727 8.97984 21.4612 9.68467 21.0383 11.0943L18.8237 18.4764C18.6379 19.0959 18.545 19.4056 18.3176 19.5975C18.2864 19.6239 18.2535 19.6483 18.2192 19.6707C17.9701 19.8333 17.6467 19.8333 17 19.8333C16.3532 19.8333 16.0299 19.8333 15.7808 19.6707C15.7465 19.6483 15.7136 19.6239 15.6823 19.5975C15.455 19.4056 15.3621 19.0959 15.1762 18.4764L12.9616 11.0943Z" fill="#7E869E" fill-opacity="0.25" stroke="#222222" stroke-width="1.2"/>
<circle cx="17" cy="26.9167" r="2.83333" fill="#7E869E" fill-opacity="0.25" stroke="#222222" stroke-width="1.2"/>
</svg>
