<svg width="33" height="33" viewBox="0 0 33 33" fill="none" xmlns="http://www.w3.org/2000/svg">
<path d="M26.5731 7.94436L26.1573 8.22215V8.22215L26.5731 7.94436ZM26.5731 22.3056L26.1573 22.0278V22.0279L26.5731 22.3056ZM25.0556 23.8231L24.7779 23.4073L25.0556 23.8231ZM19.25 24.7481L19.2478 24.2481C18.9725 24.2493 18.75 24.4728 18.75 24.7481H19.25ZM19.25 24.75L19.6972 24.9736C19.7319 24.9042 19.75 24.8276 19.75 24.75H19.25ZM13.75 24.75H13.25C13.25 24.8276 13.2681 24.9042 13.3028 24.9736L13.75 24.75ZM13.75 24.7481H14.25C14.25 24.4728 14.0275 24.2493 13.7522 24.2481L13.75 24.7481ZM7.94436 23.8231L8.22215 23.4073L7.94436 23.8231ZM6.42692 22.3056L6.84265 22.0279H6.84265L6.42692 22.3056ZM6.42692 7.94436L6.01118 7.66658H6.01118L6.42692 7.94436ZM7.94436 6.42692L7.66658 6.01118V6.01118L7.94436 6.42692ZM25.0556 6.42692L25.3334 6.01118L25.0556 6.42692ZM28 15.125C28 13.2043 28.0006 11.7261 27.8816 10.5559C27.7617 9.37743 27.5163 8.45604 26.9888 7.66658L26.1573 8.22215C26.5568 8.81992 26.7749 9.55771 26.8867 10.6571C26.9994 11.7649 27 13.1835 27 15.125H28ZM26.9888 22.5834C27.5163 21.794 27.7617 20.8726 27.8816 19.6941C28.0006 18.5239 28 17.0457 28 15.125H27C27 17.0665 26.9994 18.4851 26.8867 19.5929C26.7749 20.6923 26.5568 21.4301 26.1573 22.0278L26.9888 22.5834ZM25.3334 24.2388C25.9886 23.8011 26.5511 23.2386 26.9888 22.5834L26.1573 22.0279C25.7926 22.5738 25.3238 23.0426 24.7779 23.4073L25.3334 24.2388ZM19.2522 25.2481C20.7332 25.2417 21.913 25.2133 22.8794 25.0797C23.8539 24.945 24.6438 24.6996 25.3334 24.2388L24.7779 23.4073C24.2556 23.7563 23.6262 23.967 22.7425 24.0891C21.8507 24.2124 20.7336 24.2417 19.2478 24.2481L19.2522 25.2481ZM19.75 24.75V24.7481H18.75V24.75H19.75ZM17.8416 28.6848L19.6972 24.9736L18.8028 24.5264L16.9472 28.2375L17.8416 28.6848ZM15.1584 28.6848C15.7111 29.7903 17.2889 29.7903 17.8416 28.6848L16.9472 28.2375C16.763 28.6061 16.237 28.6061 16.0528 28.2375L15.1584 28.6848ZM13.3028 24.9736L15.1584 28.6848L16.0528 28.2375L14.1972 24.5264L13.3028 24.9736ZM13.25 24.7481V24.75H14.25V24.7481H13.25ZM7.66658 24.2388C8.35617 24.6996 9.14615 24.945 10.1206 25.0797C11.087 25.2133 12.2668 25.2417 13.7478 25.2481L13.7522 24.2481C12.2664 24.2417 11.1493 24.2124 10.2575 24.0891C9.37384 23.967 8.74442 23.7563 8.22215 23.4073L7.66658 24.2388ZM6.01118 22.5834C6.44893 23.2386 7.01144 23.8011 7.66658 24.2388L8.22215 23.4073C7.6762 23.0426 7.20744 22.5738 6.84265 22.0279L6.01118 22.5834ZM5 15.125C5 17.0457 4.9994 18.5239 5.11843 19.6941C5.23832 20.8726 5.48368 21.794 6.01118 22.5834L6.84265 22.0279C6.44324 21.4301 6.22514 20.6923 6.1133 19.5929C6.0006 18.4851 6 17.0665 6 15.125H5ZM6.01118 7.66658C5.48368 8.45604 5.23832 9.37743 5.11843 10.5559C4.9994 11.7261 5 13.2043 5 15.125H6C6 13.1835 6.0006 11.7649 6.1133 10.6571C6.22514 9.55771 6.44324 8.81992 6.84265 8.22215L6.01118 7.66658ZM7.66658 6.01118C7.01144 6.44893 6.44893 7.01144 6.01118 7.66658L6.84265 8.22215C7.20744 7.6762 7.6762 7.20744 8.22215 6.84265L7.66658 6.01118ZM15.125 5C13.2043 5 11.7261 4.9994 10.5559 5.11843C9.37743 5.23832 8.45604 5.48368 7.66658 6.01118L8.22215 6.84265C8.81992 6.44324 9.55771 6.22514 10.6571 6.1133C11.7649 6.0006 13.1835 6 15.125 6V5ZM17.875 5H15.125V6H17.875V5ZM25.3334 6.01118C24.544 5.48368 23.6226 5.23832 22.4441 5.11843C21.2739 4.9994 19.7957 5 17.875 5V6C19.8165 6 21.2351 6.0006 22.3429 6.1133C23.4423 6.22514 24.1801 6.44324 24.7779 6.84265L25.3334 6.01118ZM26.9888 7.66658C26.5511 7.01144 25.9886 6.44893 25.3334 6.01118L24.7779 6.84265C25.3238 7.20744 25.7926 7.6762 26.1573 8.22215L26.9888 7.66658Z" fill="#222222"/>
<circle cx="22" cy="15.125" r="1.375" fill="#222222"/>
<circle cx="16.5" cy="15.125" r="1.375" fill="#222222"/>
<circle cx="11" cy="15.125" r="1.375" fill="#222222"/>
</svg>
