<svg width="35" height="35" viewBox="0 0 35 35" fill="none" xmlns="http://www.w3.org/2000/svg">
<path d="M7.29166 18.6077C7.29166 16.6277 7.29166 15.6376 7.69191 14.7674C8.09217 13.8972 8.84386 13.2528 10.3472 11.9642L11.8056 10.7142C14.5229 8.38509 15.8816 7.22052 17.5 7.22052C19.1184 7.22052 20.4771 8.38509 23.1944 10.7142L24.6527 11.9642C26.1561 13.2528 26.9078 13.8972 27.3081 14.7674C27.7083 15.6376 27.7083 16.6277 27.7083 18.6077V24.7916C27.7083 27.5415 27.7083 28.9164 26.854 29.7707C25.9998 30.625 24.6248 30.625 21.875 30.625H13.125C10.3751 30.625 9.0002 30.625 8.14593 29.7707C7.29166 28.9164 7.29166 27.5415 7.29166 24.7916V18.6077Z" stroke="#222222"/>
<path d="M21.1458 30.625V22.875C21.1458 22.3227 20.6981 21.875 20.1458 21.875H14.8542C14.3019 21.875 13.8542 22.3227 13.8542 22.875V30.625" stroke="#222222" stroke-linecap="round" stroke-linejoin="round"/>
</svg>
