<svg width="95" height="79" viewBox="0 0 95 79" fill="none" xmlns="http://www.w3.org/2000/svg">
<g clip-path="url(#clip0_121_55)">
<path d="M63.8881 31.7941C94.3712 107.554 29.4406 -53.8126 63.8881 31.7941ZM0.00112727 46.031C-0.0537946 41.6233 1.7924 37.6597 6.09968 36.1007C6.25962 35.8825 6.41641 35.7133 6.69547 35.5018C7.19311 35.1241 7.64492 35.0121 8.23013 34.8103C28.8813 27.9371 36.8068 17.2276 41.3143 11.1366C42.6302 9.35853 43.6798 7.94037 44.7628 6.9622C45.3636 6.41948 45.836 6.07065 46.5461 5.82942C47.28 5.57997 47.963 5.55731 48.9143 5.69563C51.0031 5.99897 53.1455 7.25967 55.2395 9.22222C59.8769 13.5684 64.7665 21.8052 68.215 30.3749C71.6799 38.9866 73.7306 48.056 72.6706 54.0275C72.2336 56.4903 71.2699 58.5116 69.6745 59.9046L69.6721 59.9024C69.5795 59.9828 69.478 60.0573 69.3682 60.1248C68.2724 60.7985 67.2387 61.0603 66.169 61.0973C65.2446 61.1293 64.4349 60.9872 63.5352 60.8181C61.9153 60.5134 60.3647 60.1134 58.6933 59.6823C53.251 58.2787 46.4617 56.5287 35.674 57.6737C35.459 58.3204 35.3012 59.011 35.2946 59.6276C35.2903 60.0375 35.3359 60.3627 35.4682 60.4721L35.6504 60.6224C36.66 61.4533 37.1575 61.8616 37.4554 62.8696C37.6881 63.6579 37.5909 64.3371 37.3996 65.674L37.3356 66.1241C37.2278 66.8911 37.6633 67.0593 38.098 67.227C39.3723 67.7187 40.6465 68.2101 41.3375 69.8792C41.5269 70.2663 41.581 70.6965 41.4926 71.1122C40.9389 73.6848 39.2606 74.9903 37.5833 76.2953C37.2536 76.5518 36.9231 76.8088 36.6285 77.0613L36.6246 77.0576C36.5769 77.0984 36.5271 77.1378 36.4752 77.1756C32.4752 80.0693 29.6935 79.2072 27.5415 76.7722C26.1695 75.2201 25.3006 73.0529 24.4896 71.0299L24.156 70.2105C22.9982 67.3754 22.1296 63.9856 21.2516 60.4572L21.0306 60.5188C20.1427 60.757 19.2577 61.0041 18.3758 61.2603C18.2888 61.2856 18.2437 61.3019 18.2068 61.3152C17.4179 61.599 17.0223 61.7409 16.3864 61.5347C11.1323 62.7553 6.76375 60.4392 3.82896 56.7241C2.63107 55.2074 1.6833 53.4473 1.03128 51.6135C0.382983 49.7893 0.0243206 47.8722 0.00112727 46.031Z" fill="#333333"/>
<path fill-rule="evenodd" clip-rule="evenodd" d="M7.63359 37.8222C-3.23574 40.7151 3.88443 63.2401 16.6163 59.2991C17.1065 59.5762 17.0996 59.4456 17.6726 59.2784C19.4231 58.7663 21.1865 58.2911 22.9614 57.8532C24.0155 62.0578 24.9718 66.1928 26.3195 69.4929C28.0389 73.7026 29.8296 79.3235 35.0418 75.5526C36.686 74.144 38.7268 73.0584 39.2298 70.7207C38.3932 68.4496 34.5034 69.7889 35.055 65.8631C35.4372 63.1444 35.5213 63.3385 33.9176 62.0135C32.2937 60.6717 33.1398 57.6214 33.9859 55.7688C39.6473 55.06 44.2769 55.1025 48.2034 55.5029C43.2302 50.4136 39.7091 45.0263 37.5324 39.4083C35.3482 33.7695 34.5247 27.9235 34.952 21.9353C29.5404 27.0682 21.5463 32.5997 9.02334 36.7677C8.0045 37.1069 8.21436 36.9836 7.63359 37.8222Z" fill="#EDECF1"/>
<path d="M57.0341 59.2927C55.6787 58.9551 50.917 58.1314 50.0431 57.3093C44.0881 51.6941 39.9681 45.6956 37.5324 39.4083C34.9999 32.8698 34.2961 26.0526 35.2516 19.058C35.2535 19.0582 35.6565 18.1136 35.7203 18.0385C37.2379 16.2574 38.7561 14.2946 40.1364 12.5101C42.0126 10.0839 43.6495 7.96757 44.7628 6.9622C45.3636 6.41948 45.836 6.07065 46.5461 5.82942C47.2799 5.57997 47.9629 5.55731 48.9142 5.69563C51.0031 5.99897 53.1454 7.25967 55.2395 9.22222C59.8769 13.5684 64.7664 21.8052 68.215 30.3749C71.6799 38.9866 73.7305 48.056 72.6705 54.0275C72.2336 56.4903 71.2698 58.5116 69.6745 59.9046L69.6721 59.9024C69.5795 59.9828 69.478 60.0573 69.3682 60.1248C68.2721 60.7988 67.2383 61.06 66.169 61.0969C65.244 61.1292 64.4348 60.987 63.5351 60.8181C61.9971 60.5289 59.5479 59.9187 57.0341 59.2927Z" fill="#333333"/>
<path fill-rule="evenodd" clip-rule="evenodd" d="M51.7017 55.8658C54.0323 56.3661 57.2375 57.1948 59.9873 57.8681C54.3606 52.7681 49.7653 44.9325 46.6582 36.9109C43.3415 28.3485 41.7109 19.4453 42.3136 13.3216C40.8266 15.243 39.165 17.4052 37.5413 19.3108C35.7456 32.4536 40.0557 44.884 51.7017 55.8658Z" fill="#FD6974"/>
<path fill-rule="evenodd" clip-rule="evenodd" d="M22.9386 57.8369C23.8149 61.3613 25.1791 66.7006 26.3194 69.4929C28.0385 73.7026 29.8296 79.3235 35.0418 75.5526C36.686 74.1441 38.7268 73.0584 39.2298 70.7207C38.3932 68.4496 34.5034 69.7889 35.055 65.8631C35.4372 63.1444 35.5213 63.3385 33.9176 62.0135C32.3542 60.7216 33.0804 57.8462 33.8916 55.9805C36.0139 55.0384 41.777 54.9466 48.1223 55.5187C44.1344 51.4359 41.1202 47.6218 38.4271 41.6731C32.3555 46.4917 29.0102 53.0182 22.9386 57.8369Z" fill="#DBD9E5"/>
<path d="M43.5892 8.41091C43.9668 7.59356 44.4802 6.95197 45.1127 6.47539C46.5264 5.40975 48.2179 5.28351 50.0787 5.94643C51.4213 6.42469 52.8751 7.36425 54.363 8.67262C57.7117 11.6167 61.5243 16.6813 64.6909 22.5787C68.7226 30.0867 72.0016 38.946 73.1489 46.0769C73.7133 49.5835 73.7662 52.7302 73.1526 55.1861C72.4132 58.1465 70.7394 60.1915 67.9096 60.8994C66.9394 61.1418 65.8773 61.2074 64.7202 61.0766C64.2696 61.0275 63.8453 60.8587 63.5008 60.5913C56.2672 55.9108 50.3897 46.5444 46.6581 36.9109C42.2837 25.6175 40.8409 13.7293 43.5892 8.41091ZM65.8606 10.8235C65.1023 11.3887 63.9825 11.2944 63.3577 10.609C62.7332 9.92274 62.8369 8.90965 63.5951 8.34461L74.2581 0.368814C75.0157 -0.196233 76.136 -0.102059 76.7607 0.583518C77.3847 1.26943 77.2812 2.28269 76.5228 2.84824L65.8606 10.8235ZM80.8402 50.2407C79.8586 50.2813 79.0352 49.5887 78.9997 48.6978C78.9552 47.8108 79.7204 47.0646 80.7049 47.033L93.1584 46.6098C94.1333 46.5808 94.9575 47.2739 94.9989 48.1526C95.0174 48.5784 94.8488 48.9935 94.5299 49.3071C94.2111 49.6207 93.7679 49.8074 93.2974 49.8262L80.8402 50.2407ZM80.4845 39.2944C79.5109 39.412 78.6162 38.7913 78.4895 37.9196C78.3598 37.0388 79.0459 36.229 80.0093 36.1145L91.5147 34.7314C92.4882 34.6134 93.3833 35.2345 93.5095 36.1063C93.6397 36.9868 92.953 37.7969 91.9902 37.911L80.4845 39.2944ZM78.0638 29.2451C77.1357 29.5362 76.1221 29.0919 75.7992 28.2519C75.7225 28.0521 75.6901 27.8407 75.7037 27.6296C75.7174 27.4186 75.7769 27.212 75.8788 27.0217C75.9807 26.8315 76.1231 26.6612 76.2977 26.5207C76.4724 26.3803 76.6759 26.2723 76.8967 26.203L88.6942 22.4986C89.6193 22.1978 90.637 22.6514 90.9588 23.4913C91.1134 23.8947 91.0846 24.3372 90.8788 24.7214C90.673 25.1057 90.307 25.4003 89.8613 25.5406L78.0638 29.2451ZM72.5002 19.5666C71.648 20.0071 70.5646 19.7385 70.0775 18.968C69.5912 18.197 69.8881 17.217 70.7401 16.7765L81.9184 10.9744C82.7704 10.5336 83.8538 10.8022 84.3407 11.5727C84.8272 12.3437 84.5301 13.3238 83.6779 13.7643L72.5002 19.5666Z" fill="#333333"/>
<path fill-rule="evenodd" clip-rule="evenodd" d="M45.714 9.21618C48.0717 4.09365 56.5157 12.1213 62.6175 23.4839C70.9352 38.9733 75.9549 60.2448 64.9999 59.0051C50.0977 49.5558 40.9396 18.1409 45.714 9.21618Z" fill="white"/>
<path fill-rule="evenodd" clip-rule="evenodd" d="M64.0074 26.1898C71.4558 41.3304 75.3294 60.174 64.9998 59.0051C60.351 56.0575 56.2615 50.9719 52.9794 45.0987C46.9934 32.7507 44.4815 18.2359 47.4851 12.6214C49.7943 7.60447 57.9405 15.2009 64.0074 26.1898Z" fill="#EDECF1"/>
<path fill-rule="evenodd" clip-rule="evenodd" d="M58.184 37.2746C58.184 40.5397 53.7778 47.0894 52.289 44.2869C49.9997 39.9772 48.1381 35.5226 46.9601 30.7544C46.5841 29.2253 58.184 29.4281 58.184 37.2746Z" fill="#333333"/>
</g>
<defs>
<clipPath id="clip0_121_55">
<rect width="95" height="79" fill="white"/>
</clipPath>
</defs>
</svg>
