<svg width="35" height="35" viewBox="0 0 35 35" fill="none" xmlns="http://www.w3.org/2000/svg">
<path fill-rule="evenodd" clip-rule="evenodd" d="M17.5 30.625C24.7487 30.625 30.625 24.7487 30.625 17.5C30.625 10.2513 24.7487 4.375 17.5 4.375C10.2513 4.375 4.375 10.2513 4.375 17.5C4.375 24.7487 10.2513 30.625 17.5 30.625ZM14.1993 11.4749L23.6413 16.1958C24.7161 16.7333 24.7161 18.2671 23.6413 18.8046L14.1993 23.5256C13.0357 24.1073 11.6667 23.2612 11.6667 21.9603V13.0401C11.6667 11.7392 13.0357 10.8931 14.1993 11.4749Z" fill="#7E869E" fill-opacity="0.25"/>
<path d="M24.4611 16.6056L13.4033 11.0766C12.6054 10.6777 11.6667 11.2579 11.6667 12.15V22.85C11.6667 23.7421 12.6054 24.3223 13.4033 23.9233L24.4611 18.3944C25.1982 18.0259 25.1982 16.9741 24.4611 16.6056Z" stroke="#222222" stroke-linecap="round" stroke-linejoin="round"/>
<circle cx="17.5" cy="17.5" r="13.125" stroke="#222222"/>
</svg>
